<?xml version="1.0" encoding="UTF-8"?>
<svg xmlns="http://www.w3.org/2000/svg" id="Layer_1" data-name="Layer 1" viewBox="0 0 24 24">
  <path d="M12,24c-.077,0-.153-.018-.224-.053l-.425-.212c-2.194-1.098-9.354-5.191-9.354-11.8l.002-5.346c0-1.943,1.239-3.66,3.084-4.271L11.843,.077c.102-.034,.213-.034,.314,0l6.759,2.241c1.845,.612,3.084,2.329,3.084,4.271l-.002,5.346c0,7.499-7.172,10.967-9.37,11.852l-.441,.177c-.06,.024-.124,.036-.187,.036ZM12,1.078L5.398,3.267c-1.435,.476-2.398,1.811-2.398,3.322l-.002,5.346c0,6.035,6.736,9.874,8.801,10.906l.224,.112,.232-.093c2.051-.825,8.743-4.053,8.743-10.924l.002-5.346c0-1.511-.964-2.846-2.398-3.322L12,1.078Z"/>
</svg>
