<?xml version="1.0" encoding="UTF-8"?>
<svg xmlns="http://www.w3.org/2000/svg" id="Layer_1" data-name="Layer 1" viewBox="0 0 24 24">
  <path d="M22.462,21.126c-.212-.179-.526-.151-.704,.062-.782,.929-2.074,1.033-2.971,.313,.513-.555,.932-1.098,1.25-1.618,1.26-2.073,1.494-4.396,1.504-4.494,.011-.112-.018-.226-.079-.32-.72-1.108-1.557-2.04-2.452-2.824V6.756c0-.159-.075-.308-.203-.402-.063-.047-1.136-.819-3.28-1.292v-.551c0-1.937-1.579-3.512-3.533-3.512-1.94,0-3.52,1.575-3.52,3.512v.552c-2.14,.473-3.216,1.243-3.279,1.29-.128,.094-.204,.244-.204,.403v5.487c-.895,.784-1.732,1.716-2.452,2.824-.062,.095-.09,.208-.079,.32,.01,.098,.244,2.421,1.505,4.495,.316,.517,.735,1.06,1.249,1.617-.897,.72-2.189,.617-2.971-.313-.178-.212-.493-.241-.704-.062-.212,.178-.239,.493-.062,.704,1.148,1.368,3.151,1.521,4.439,.392,1.154,1.013,2.901,1.009,4.056,0,1.154,1.01,2.902,1.01,4.057,0,1.154,1.01,2.901,1.013,4.056,0,.577,.506,1.281,.778,2.028,.778,.921,0,1.777-.415,2.411-1.17,.178-.211,.15-.526-.062-.704ZM9.474,4.512c0-1.385,1.13-2.512,2.533-2.512,1.39,0,2.52,1.127,2.52,2.512v.367c-.743-.11-1.584-.18-2.526-.18s-1.783,.07-2.526,.18v-.368Zm-3.483,2.521c.615-.357,2.607-1.333,6.01-1.333s5.399,.977,6.01,1.332v4.411c-1.982-1.449-4.132-2.271-5.881-2.736-.086-.022-.172-.022-.258,0-1.749,.465-3.899,1.287-5.881,2.736V7.032Zm4.364,14.155c-.189-.227-.576-.227-.766,0-.88,1.047-2.408,1.047-3.29,0-.018-.021-.038-.04-.059-.058-.004-.005-.008-.01-.013-.015-.6-.613-1.073-1.203-1.408-1.753-.954-1.568-1.266-3.353-1.343-3.901,2.169-3.233,5.441-4.826,8.024-5.609v12.059c-.426-.105-.828-.346-1.146-.723Zm4.057,0c-.189-.227-.576-.227-.766,0-.318,.378-.72,.618-1.146,.723V9.852c2.584,.782,5.856,2.376,8.024,5.61-.076,.547-.385,2.325-1.342,3.9-.34,.558-.819,1.152-1.425,1.769-.001,.001-.003,.003-.004,.004-.019,.016-.037,.033-.053,.052-.882,1.047-2.41,1.047-3.29,0Z"/>
</svg>
