<?xml version="1.0" encoding="UTF-8"?>
<svg xmlns="http://www.w3.org/2000/svg" id="Layer_1" data-name="Layer 1" viewBox="0 0 24 24">
  <path d="M22.396,8.169c-.047-.163-.175-.292-.337-.341-.088-.025-2.172-.64-4.636-.64-.117,0-.234,.002-.349,.005-.257-2.216-.677-3.659-.702-3.744-.049-.164-.177-.291-.34-.339-.13-.037-3.229-.926-6.896-.926s-6.766,.889-6.896,.926c-.164,.048-.292,.176-.34,.34-.037,.125-.899,3.114-.899,7.111,0,4.032,.863,6.989,.899,7.113,.052,.175,.195,.308,.374,.347,.054,.011,.612,.13,1.506,.265v1.062c0,1.36,1.104,2.467,2.46,2.467s2.461-1.106,2.461-2.467v-.649c.144,.002,.289,.003,.436,.003,2.011,0,3.854-.2,5.123-.383h1.283v1.028c0,1.36,1.104,2.467,2.461,2.467s2.461-1.106,2.461-2.467v-1.028h1.453c.224,0,.42-.148,.48-.362,.025-.087,.604-2.146,.604-4.895,0-2.772-.579-4.81-.604-4.895Zm-4.973,.02c1.818,0,3.455,.366,4.08,.526,.12,.501,.366,1.665,.459,3.167h-4.723c.02-.425,.031-.866,.031-1.32,0-.842-.038-1.638-.098-2.37,.083-.002,.167-.003,.251-.003ZM7.7,19.349c0,.809-.655,1.467-1.461,1.467s-1.46-.658-1.46-1.467v-.925c.836,.104,1.835,.199,2.921,.247v.678Zm-4.919-2.246c-.211-.829-.781-3.364-.781-6.541s.581-5.751,.787-6.562c.824-.211,3.432-.814,6.349-.814s5.526,.604,6.349,.814c.206,.806,.786,3.357,.786,6.562,0,3.152-.57,5.705-.781,6.541-.857,.161-3.453,.601-6.354,.601s-5.499-.439-6.354-.601Zm16.682,2.246c0,.809-.655,1.467-1.461,1.467s-1.461-.658-1.461-1.467v-1.028h2.922v1.028Zm2.062-2.028h-5.059c.173-.684,.537-2.303,.709-4.438h4.823c0,.06,0,.121,0,.182,0,1.952-.315,3.565-.475,4.257Z"/>
</svg>
